<svg xmlns="http://www.w3.org/2000/svg" viewBox="0 0 712.35 90.28">
  <defs>
    <style>
      .cls-1 {
        fill: #fff;
      }
    </style>
  </defs>
  <title>adventure-pack-logo</title>
  <g id="Layer_2" data-name="Layer 2">
    <g id="Layer_1-2" data-name="Layer 1">
      <g id="tz63Og">
        <g>
          <path class="cls-1" d="M712.24,42.39a43.67,43.67,0,0,0-3.13-13.71c-2.22-5.3-2.36-5.5-8-5.34-2.18.06-2.3-1.55-2.41-2.29-.45-3.13-2.14-5.91-2.4-9a3,3,0,0,0-1.64-2.77c-3.61-1.46-6.42-4.18-10.18-5.61A48,48,0,0,0,668.38.33c-16.66-.34-33.33.15-50-.28-5.44-.14-8.57,2.11-11.21,6.17-.43.66-1,1.25-1.41,1.92a2.51,2.51,0,0,1-3.05,1c-4.46-1.37-9.45-2.13-11.3-7.34-.5-1.41-1-1.65-2.31-1.64-14.16,0-28.33.05-42.49,0-1.5,0-2.31.8-3.45,1.42-1.58.86-3.32,3-5.42.69C532.83,2,528.24-.43,523.11.14a57.24,57.24,0,0,1-10.49,0c-3.24-.24-5.91,1-8.44,2.62-5,3.22-8.18,3.51-12.9-.12a12.11,12.11,0,0,0-8-2.46Q309.8.24,136.34.21c-.67,0-1.34,0-2,0a7.51,7.51,0,0,0-6,2.36c-2.37,2.22-4.12,2.19-6.82.47A25.16,25.16,0,0,0,116.14.27c-2.16-.73-2.89,0-2.93,2.27,0,1,0,2,0,3,0,.81.16,1.76-1.13,1.65-.72-.06-1.44.3-1.94-.88-1.13-2.64-2.76-4-6-2.22-1.7,1-3.89-.16-3.84-1.73C100.41-.15,99,.21,97.56.21c-10,0-20-.17-30,0s-20.08-.91-30.1.86a50.34,50.34,0,0,0-8.64,2.12,56.31,56.31,0,0,0-8.62,4.52c-4.88,2.83-8.48,7.13-12,11.45A19.83,19.83,0,0,0,4.32,26C3.27,29.94.39,33.37,1.16,37.75c-2,3-.83,6.41-.87,9.6a27.05,27.05,0,0,0,1.17,9.48C4.1,64,6.83,71.33,13,76.53c2.48,2.09,5,4.12,7.32,6.41a3.82,3.82,0,0,0,3.5,1.26c2.2-.29,4.38-.75,6.59-1,1.46-.13,3.44-.48,4.29.28s.45,2.74.46,4.2c0,1,.2,1.43,1.32,1.54,1.71.16,3.39.91,5.09.91q69.24.08,138.47.1a9.16,9.16,0,0,0,4.54-1.14c2.37-1.35,4.47-1,6.85-.24a21.27,21.27,0,0,0,7.46,1.39c5.16-.21,10.33-.13,15.49,0,3.47.06,6.75,0,9.34-2.93.84-1,2.43-1.29,3.71-1.8a3,3,0,0,1,1.87-.25c1.9.63,4.18,1,5.51,2.26,2.64,2.56,5.62,2.73,8.93,2.73q163-.05,325.93,0c1.79,0,3.57-.21,5.36-.32q.08-2.47.16-4.93a5.26,5.26,0,0,1,0-1A1.94,1.94,0,0,1,578.5,83a69.33,69.33,0,0,1,5.27,5.33c1.32,1.59,2.82,1.9,4.76,1.89,13.66-.07,27.33,0,41,0,11.83,0,23.66.05,35.49,0a62.87,62.87,0,0,0,10.62-.78A42.16,42.16,0,0,0,696.87,79a48.33,48.33,0,0,0,9.89-11.9A34.43,34.43,0,0,0,710,60,49.05,49.05,0,0,0,712.24,42.39ZM23.53,39c-.08,0-.22-.2-.33-.31a3.13,3.13,0,0,1,.67-.31.09.09,0,0,1,.07,0,.87.87,0,0,1,.12.13l.1.11,0,0h0A3.11,3.11,0,0,1,23.53,39Zm1.62,22.14c-.1.07-.9-.47-.89-.72A5.9,5.9,0,0,1,25,58.68c.65.7,1.22,1.11,1.16,1.28A2.79,2.79,0,0,1,25.15,61.16Zm5.84-26c-.21,0-.5-.27-.76-.43l1.62-1.38.5,1.2A6.91,6.91,0,0,1,31,35.18Zm9.42,23.46-2.18-2a4.47,4.47,0,0,1,1.26-.44c.73,0,1.75-.31,1.67,1C41.15,57.59,40.8,57.94,40.41,58.64ZM76,5.21l1.67,1.34L76.55,8.06a13.41,13.41,0,0,1-1.3-1.89C75.17,6,75.71,5.54,76,5.21Zm-5.26,23c.11.11.33.25.31.33a3.12,3.12,0,0,1-.31.67l-.36-.36Zm30.46,40c-2,.13-4,0-6,0a9,9,0,0,0-1.5,0c-4.28.73-7.2-.76-8.52-5.06a1.73,1.73,0,0,0-1.31-.91c-4.33-.07-8.65,0-13-.06-1.58,0-2.22.81-2.7,2.21C67,67.79,66.41,68.19,63,68.21c-3,0-6-.1-9,.05a2.71,2.71,0,0,1-2.77-1.61,2.78,2.78,0,0,1,.57-2.71,81,81,0,0,0,5.76-9.57c2.28-4.24,5-8.24,7.3-12.47.69-1.28,2.21-2.88.33-4.58-.19-.17-.13-1.44.91-.65s1.38,1,2.11-.44c2.17-4.12,4.72-8,6.88-12.15.72-1.37,1.62-.7,2.45-.85s1.42,0,1.69,1.13,1.25,2.13,1.79,3.24c2.82,5.72,6.3,11,9.54,16.52,2.21,3.74,4.42,7.48,6.58,11.26q2.77,4.84,5.4,9.75C103.38,66.59,102.7,68.08,101.16,68.18ZM135,5.26c.14-.13.78.27,1.2.43L134.74,7c-.11-.07-.53-.28-.51-.32A3.9,3.9,0,0,1,135,5.26ZM130.25,14a7.08,7.08,0,0,1,.92,1.18c.09.18-.17.54-.27.82l-1.7-1.3Zm13.45,75.2a3.13,3.13,0,0,1-.31-.67s0-.1.11-.15l.12-.1.09-.07h0a3.11,3.11,0,0,1,.31.67C144,89,143.81,89.1,143.7,89.21Zm5-42.06c-.05.6-.57,1.21-.5,1.76.59,4.15-1.84,7.29-3.79,10.4C142,63.2,137.71,65,133.79,67.12c-2.94-.44-5.64,1.08-8.52,1.09-5.48,0-11,0-16.45,0-3.2,0-3.59-.42-3.61-3.73,0-6.48,0-13,0-19.44,0-6.65,0-13.29,0-19.94,0-1.53.62-1.6,1.9-2a15.65,15.65,0,0,1,5.11-.88c3,0,6-.12,9,0,4,.21,8,.59,12,1,2.29.23,7.5,3.63,9.44,5.89a34.35,34.35,0,0,1,2.43,2.5c1.59,2.31,3.3,4.59,3.17,7.67a6.77,6.77,0,0,0,.57,3.24C149.38,43.8,148.86,45.6,148.73,47.16ZM151,74.74a5.85,5.85,0,0,1-.73-1.76c0-.25.8-.79.89-.72a2.79,2.79,0,0,1,1,1.2C152.21,73.64,151.64,74,151,74.74Zm.36-21.89.36-.64c.11.11.33.25.31.33a3.12,3.12,0,0,1-.31.67ZM195.6,24.37c-2.19,4.82-5.27,9.14-7.65,13.81-1.83,3.59-4,6.95-5.85,10.54-1.47,2.91-3.74,5.42-5.15,8.36s-3,5.77-4.5,8.63c-.73,1.36-1.27,1.51-2.4,1.51s-1.3-.44-2-1.35c-4.16-5.69-6.11-12.62-10.65-18.14C155,44.82,154,40.84,152,37.56c-2.44-4-4.67-8.06-7-12.09-1.16-2-1-2.09.91-2.28,2.53-.25,5-.65,7.6-1,2.83.33,5.69.63,8.54,1,.43.06.93.64,1.14,1.1,1.38,2.92,3.22,5.6,4.12,8.79.42,1.5,1.68,3.64,2.85,3.85,1.51.27,1.53-2.21,2.25-3.46s1.81-2.53,1.83-4.25,2.51-2,2.08-4.19c-.19-.94.95-1.92,2.36-1.89a23,23,0,0,0,7.1-.87c3.14-.92,6.35.53,9.53.89C196.43,23.34,195.9,23.71,195.6,24.37Zm20,30.92c1.22,1,2.38.9,3.65.91,3.83,0,7.65,0,11.48,0,1,0,1.48.27,1.46,1.37-.05,2.66,0,5.33,0,8a2.4,2.4,0,0,1-2.69,2.65q-14.23.06-28.45,0c-2.05,0-2.81-.85-2.83-3,0-5.49,0-11,0-16.47,0-3.83.09-7.66,0-11.48-.09-2.71.46-5.42-.84-8.13a6.11,6.11,0,0,1,.37-4.72c.91-1.8,3.38-1.23,5-2.11.65-.34,1.63-.06,2.47-.06,5.82,0,11.66.22,17.47-.09,3-.16,5.67,1.16,8.58,1.15.32,0,.9.82.92,1.27.09,2.33.06,4.66,0,7,0,2.6-.85,3.52-3.68,3.65s-5.66,0-8.48,0c-1.16,0-2.33,0-3.49,0a2.18,2.18,0,0,0-2.3,2c-.13.9-.4,2,1.29,2,3-.09,6-.05,9,0,2.47,0,4.93.13,7.4.2.1,2.46.2,4.91.28,7.37,0,.83-.07,1.67,0,2.49.17,1.48-.32,2-1.88,2-4.32-.11-8.65,0-13,0a2.81,2.81,0,0,0-2.62.94C213.75,53.43,214.22,54.11,215.63,55.29ZM365.84,10.36l.36.36h0l-.33.18a1.41,1.41,0,0,1-.34.13c-.08,0-.22-.2-.33-.31Zm-124.6,71.9a2.79,2.79,0,0,1,1.2-1c.17-.06.58.51,1.28,1.16a5.85,5.85,0,0,1-1.76.73C241.71,83.15,241.18,82.35,241.25,82.26Zm4,5.91a16.44,16.44,0,0,1-1.84-1.66,5.76,5.76,0,0,1,1.81-.25c.45.08.82.59,1.5,1.13C245.93,87.82,245.39,88.27,245.23,88.17Zm22.67-9c-.76.07-1.72.27-1.71-1,0-.94.31-2-1.35-2a4.71,4.71,0,0,1-.48-2.47c.06-.52.83-1,1.37-1.36.08-.05.72.61,1,1a34.71,34.71,0,0,1,2.09,3.11,10.16,10.16,0,0,1,.58,2.22A6,6,0,0,1,267.9,79.18Zm15.28-13.33c-.05,1.65-.64,1.62-2.59,1.43-3-.3-5-2.5-7.45-3.76-4.42-2.27-8.57-5.08-12.81-7.68-1.86-1.14-3.65-2.42-5.55-3.49-.79-.44-1.59-.19-1.58,1,0,3.83,0,7.66,0,11.49,0,2.77-.63,3.32-3.5,3.35s-6,0-9,0-4.47-1.59-4.48-4.46c0-6.49,0-13,0-19.48s0-13,0-19.48c0-1.43.6-1.79,1.75-1.54a10.25,10.25,0,0,1,3.07,1c5.63,3.31,11.28,6.61,16.78,10.13,2,1.26,4.37,1.79,6,3.78.75.92,2.42-.27,2.43-1.7,0-3.66.19-7.34-.07-11-.13-1.78.72-2.15,2-2.65,2.22-.9,11.13-.66,13.43.14,1.26.44,1.74.87,1.72,2.27-.08,7.49-.12,15,0,22.48,0,2-.68,4.09.8,6.19.65.92-1,2.76-.9,4.48A64,64,0,0,1,283.18,65.85ZM293.7,53.21a3.13,3.13,0,0,1-.31-.67s0-.1.11-.15l.16-.14,0,0h0a3.11,3.11,0,0,1,.31.67C294,53,293.81,53.1,293.7,53.21ZM328.19,33c-.07,2.71-1.64,4.17-4.1,3.08-2.1-.93-4.08-.82-6.14-.85-2.72,0-2.74,0-2.74,3q0,12,0,24a23.72,23.72,0,0,1,0,3,3.4,3.4,0,0,1-3.4,3q-5,0-10,0a3.36,3.36,0,0,1-3.55-2.8,24.61,24.61,0,0,1,0-3.49c0-8.33,0-16.66,0-25,0-1.2-.2-1.95-1.6-1.71-2.35.4-4.68-.4-7.16.86s-4.21-.36-4.25-3.4c0-2.17,0-4.33,0-6.5,0-2.76,1-3.81,3.92-3.94,1.83-.08,3.67,0,5.5,0h27c1,0,2.61-.38,2.89.07.94,1.52,2.79.27,3.47,1.33.46.72.21,1.91.22,2.89C328.21,28.67,328.24,30.84,328.19,33ZM368.7,89.21c-.11-.11-.33-.25-.31-.33a1.41,1.41,0,0,1,.13-.34l.18-.33h0l.36.36Zm5.39-40.11a25.64,25.64,0,0,1-3.92,12.31,8.49,8.49,0,0,1-2.27,2.53c-1.79,1.22-3.64,2.79-5.65,3.13-2.65.45-5.19,1.61-8.05,1.21-3.5-.48-7,.16-10.61-.88a15.72,15.72,0,0,1-4.11-2.18,17.27,17.27,0,0,1-8.47-12,34.22,34.22,0,0,1-.8-6.11c0-7.32,0-14.64-.05-22,0-1.52.67-1.52,1.88-2,4-1.62,8.09-.64,12.11-.83a3.16,3.16,0,0,1,3,3.27q0,10.23,0,20.46a9.6,9.6,0,0,0,.06,3c.55,1.58.89,3.86,2.7,4.11,2.1.29,4.59,1,6.38-1.4a4,4,0,0,0,.88-2.65c0-4.16,0-8.32,0-12.48,0-4,0-8,0-12,0-1.09.4-1.41,1.44-1.38,2.33.06,4.91.65,6.92-.15,2.19-.88,3.77.65,5.75.28s2.88.66,2.89,2.83C374.22,33.8,374.47,41.47,374.09,49.1ZM392.7,75.21a3.13,3.13,0,0,1-.31-.67c0-.08.2-.22.31-.33l.36.64Zm31.29-7c-4.82.12-9.65.09-14.48,0a3.85,3.85,0,0,1-2-1.15,20.78,20.78,0,0,1-5.92-8c-1-2.53-2.56-3-4.84-2.78-1.7.16-2.5,1-2.56,2.81-.06,2.16,0,4.33,0,6.49-.06,1.77-.9,2.66-2.65,2.69-3.66.06-7.32,0-11,0a2.14,2.14,0,0,1-2.31-2c-.2-2.06-1.26-3.85-1.14-6.08.3-5.31.1-10.65.1-16,0-6,0-12,0-18,0-1.91.79-2.77,2.41-2.95,3-.33,6-.79,9.07-1s6,.23,9-.13c2.1-.25,3.64,1.19,5.59,1.11s4.16-.5,5.94.12,4.13.61,5.4,2.7a9,9,0,0,0,2.8,2.81c2,1.29,2.29,3.61,2.64,5.4a12.75,12.75,0,0,1-3.75,12.33c-1.28,1.2-1.54,2.34-.47,3.79.55.75.89,1.64,1.44,2.39,2.84,3.95,5.6,8,8.09,12.14C426.49,66.81,426,68.12,424,68.17Zm22.87-28.93c4.66-.07,9.32-.05,14,0a1.69,1.69,0,0,1,1.31.9,43.21,43.21,0,0,1,1,6.57c.13,2.85-1.55,4.46-4.41,4.49-3.83,0-7.66.16-11.48-.05-2-.11-2.16.67-2.1,2.28.1,2.75,0,2.76,3,2.78,2.33,0,4.66,0,7,0s4.57.21,6.85.33c.05,2.31.11,4.61.16,6.92,0,.83,0,1.67,0,2.5a2.22,2.22,0,0,1-2.12,2.23,11,11,0,0,1-1.5,0c-9,0-18,0-27,0-2.8,0-3.39-.62-3.41-3.44,0-6.66,0-13.31,0-20q0-9.48,0-19c0-1.51-.21-2.58,2.15-2.84a42,42,0,0,1,4.6-.77c7.49,0,15,0,22.46,0,1.26,0,2.92-.12,3.69.58,1.05,1,1.48,2.65,2.07,4.07.18.42,0,1,0,1.49.44,4.86-.64,7.38-6.61,6.88-3-.25-6-.06-9,0-2.5,0-2.41,0-2.45,2.37C445.14,38.91,445.59,39.25,446.86,39.24Zm18.59-8.08a2.79,2.79,0,0,1-1.2-1c-.07-.1.47-.9.72-.89a5.85,5.85,0,0,1,1.76.73C466,30.65,465.62,31.22,465.45,31.16ZM659.7,55.21l.36.36-.36.64h0l-.1-.09c-.11-.09-.23-.18-.21-.24A3.12,3.12,0,0,1,659.7,55.21Zm-70-44a8.09,8.09,0,0,1,1,0c.23.11,1.23.28,1.41.76s-.21,1.46-.37,2.2a9.79,9.79,0,0,1-1.65-.61,4.23,4.23,0,0,1-1-1,9.77,9.77,0,0,1-.66-1C588.83,11.42,589.27,11.31,589.71,11.22Zm-83,45c-3.51,0-3.52,0-3.53,3.76,0,1.5.06,3,0,4.49a4.11,4.11,0,0,1-3.69,3.73q-4.74.11-9.48,0c-.72,0-1.42-.7-2.15-.76-1.53-.13-1.7-1-1.69-2.26.06-6.66,0-13.31,0-20q0-9.49,0-19c0-2.82,1-3.84,3.87-4,2-.1,4,0,6,0,2.66,0,5.33-.13,8,0,2.2.14,4.38.77,6.58.92s4.12,0,6.09,1c4.49,2.25,8.92,4.66,10,10.1a23.92,23.92,0,0,1,.16,8.66c-.82,4.41-1.1,4.37-5.19,8.31a16.32,16.32,0,0,1-8.3,4.14A33,33,0,0,1,506.73,56.2Zm57.41,12a15.68,15.68,0,0,1-1.88,0c-2-.46-4.42.75-6.75-.91-1-.75-2-1.08-2.4-2.56-.54-1.94-2-2.84-4.28-2.6a44.37,44.37,0,0,1-8.47,0c-2.51-.22-4.25.79-5.11,2.87-1.14,2.78-3.11,3.37-5.8,3.22s-5.66.06-8.47-.09A4.28,4.28,0,0,1,518.53,67c-1.08-1,.33-1.62.66-2.42,2.68-6.49,6.73-12.2,10.32-18.17,2.31-3.85,4.42-7.82,6.73-11.67a86.27,86.27,0,0,0,5.06-8.88c1.45-3.2,3.92-3.14,5.77-.21,1.15,1.83,2,3.86,3.15,5.67,3,4.57,5,9.71,8.46,14a17.37,17.37,0,0,1,2.47,4.45,66.7,66.7,0,0,0,6.67,11.72c1.06,1.6,1.51,3.61,2.24,5.43C568.51,69.16,566.15,67.91,564.14,68.2Zm49-32.41c-1,.61-2,1.3-3,1.87a11.22,11.22,0,0,1-1,.52,66,66,0,0,1-6.94,2.51,13.43,13.43,0,0,1-3.78.47c-.4,0-.87-.62-1.19-1-1.73-2.28-2.62-2.16-6.23-2.35-1.8-.09-3.43-.69-5.06.45s-3.13,2.38-2.73,4.74a4.9,4.9,0,0,1,0,2c-1,3.85,1.69,6,4.15,7.68a6.16,6.16,0,0,0,6.86-.13c1.08-.82,2.9-.93,3.33-3,.38-1.81,2.49-1.62,3.83-1.25,3.42.95,6.53,2.92,10.25,3,1.13,0,1.59,1.76,1.07,3C609,63,605.73,64.45,597,67.72c-2.34.88-5.17.48-7.19.63-3.28-.46-5.91-.09-8.71-1-8-2.58-15.44-11-15-19.83.12-2.16,0-4.32,0-6.49a11.09,11.09,0,0,1,2.22-6.58c1-1.39,1.38-3.26,2.55-4.39A26.23,26.23,0,0,1,583,23a33.18,33.18,0,0,1,12.58-.63c5.84.77,11.24,3.27,14.6,8.68.24.39.37.85.62,1.24.75,1.17,1.53,2.32,2.31,3.47Zm45.25,32.35a101.07,101.07,0,0,1-14-.11c-1.52-.16-3.11-2.19-4.15-3.71-2.2-3.19-4-6.63-6.07-9.94a3.08,3.08,0,0,0-.52-.61c-.2-.19-.41-.37-.6-.56-.15.24-.35.47-.52.71a1.34,1.34,0,0,0-.31.71c-.07,3.33,0,6.65,0,10,0,3-.54,3.54-3.26,3.59q-4.74.08-9.48,0A4.05,4.05,0,0,1,615.21,64c0-6.32,0-12.65,0-19,0-6,0-12,0-18,0-3.12,1.4-4.62,4.59-4.83a40.13,40.13,0,0,1,6,0,35.21,35.21,0,0,1,5.56,1c.38.09.81.91.82,1.4.07,3.49,0,7,.05,10.48A12.56,12.56,0,0,0,632.5,37a6.82,6.82,0,0,0,1.73-1.39c1.39-2.23,2.65-4.55,4-6.84.31-.54.67-1.05,1-1.58,1.37-2.25,2.42-4.57,6-4.12,2.08.26,4.24-1.25,6.56-.88,1.55.25,2.86,1.24,4.58,1.07s2.53,1.27,1.59,2.71q-4.72,7.29-9.52,14.52c-1.59,2.38-1.32,2.86,0,5.51,3.11,6.15,8,11.14,10.8,17.48a6.87,6.87,0,0,0,.55.77c.49.79,1,1.6,1.45,2.4C660.26,67.18,659.33,68.11,658.37,68.14Zm5.1-15c-.46-.07-.85-.61-1.27-.94L664,50.73c.52.65,1.09,1,1.13,1.47C665.28,53.52,664.17,53.27,663.47,53.16Zm9.2-28c-.84-.13-2.07.72-2.43-.73-.09-.34.32-1.15.5-1.16a19,19,0,0,1,2.81.36C673.1,24.44,672.82,25.18,672.67,25.15ZM671.51,15c-.22.09-.86-.82-1.3-1.27a23.72,23.72,0,0,1,2.27-1.45c.12-.06.56.51,1.14,1.06A10,10,0,0,1,671.51,15Zm3.34-5.9-.64-.36c.11-.11.25-.33.33-.31a3.12,3.12,0,0,1,.67.31Z"/>
          <path class="cls-1" d="M394.2,39.29c0-.33,0-.66,0-1,0-3.74,1.16-4.81,4.76-4,1.6.35,3.48.9,4.2,2.67s-.11,4.74-1.91,5.58a12.2,12.2,0,0,1-4.7.65c-2.31.07-2.31,0-2.35-2.4C394.19,40.28,394.2,39.79,394.2,39.29Z"/>
          <path class="cls-1" d="M122.2,45.59c0-2.65,0-5.3,0-7.95,0-1.7.38-1.71,2.5-1.48,1.79.19,3.58-.13,4.76,1.78a9.29,9.29,0,0,1,1.77,5.75c-.21,3,.36,6-1.69,8.77-1.51,2-4.64,3.61-6.74,2.72a1.48,1.48,0,0,1-.59-1.15C122.18,51.22,122.2,48.4,122.2,45.59Z"/>
          <path class="cls-1" d="M505.69,43.21c-2.44,0-2.45,0-2.48-2.28,0-1.16,0-2.32,0-3.48.1-2.87.63-2.95,3.69-2.36,1.41.27,2.84.49,3.19,1.68s2,2.56,1,4-2.17,3-4.4,2.49A4.49,4.49,0,0,0,505.69,43.21Z"/>
          <path class="cls-1" d="M77.42,51.21c-2.4,0-2.82-.6-1.89-2.83a15.38,15.38,0,0,1,.7-1.66,1.19,1.19,0,0,1,.76-.48c.28-.05.8,0,.86.17a34.08,34.08,0,0,1,1.3,3.86c.06.23-.44.71-.77.92S77.74,51.21,77.42,51.21Z"/>
          <path class="cls-1" d="M543.5,51.21a10.39,10.39,0,0,1-1.46,0c-1.1-.16-.6-.53-.24-1.15.6-1,.92-2.21,1.42-3.31a1.08,1.08,0,0,1,.73-.51c2-.28,1,2.15,2.25,2.51-.24.83.64,2-.75,2.45A7.29,7.29,0,0,1,543.5,51.21Z"/>
        </g>
      </g>
    </g>
  </g>
</svg>
