<?xml version="1.0" encoding="UTF-8"?>
<svg width="1009px" height="364px" viewBox="0 0 1009 364" version="1.1" xmlns="http://www.w3.org/2000/svg" xmlns:xlink="http://www.w3.org/1999/xlink">
    <!-- Generator: Sketch 46.2 (44496) - http://www.bohemiancoding.com/sketch -->
    <title>logo</title>
    <desc>Created with Sketch.</desc>
    <defs></defs>
    <g id="Page-1" stroke="none" stroke-width="1" fill="none" fill-rule="evenodd">
        <g id="Logo" transform="translate(-683.000000, -313.000000)">
            <g id="logo" transform="translate(683.000000, 313.000000)">
                <g id="World" transform="translate(142.000000, 98.000000)">
                    <g id="World-BG" stroke="#FFFFFF" stroke-width="8">
                        <path d="M632.597899,0 L682.476346,0 L682.476346,-5.32907052e-15 C689.196768,-6.56359201e-15 695.097023,4.46991933 696.916279,10.9394153 L724.377307,108.594169 L724.377307,108.594169 C725.10394,111.178165 725.123878,113.909805 724.43504,116.504131 L696.800738,220.581434 L696.800738,220.581434 C695.055239,227.155399 689.104822,231.732057 682.303073,231.732057 L632.597899,231.732057 L632.597899,231.732057 C625.786651,231.732057 619.830428,227.142858 618.093701,220.556746 L591.495802,119.690717 L591.495802,119.690717 C590.834733,117.183773 590.834733,114.548284 591.495802,112.041339 L618.093701,11.175311 L618.093701,11.175311 C619.830428,4.58919905 625.786651,-4.07786467e-15 632.597899,-5.32907052e-15 Z" id="D" stroke-opacity="0.497282609"></path>
                        <path d="M484.597899,30 L534.476346,30 L534.476346,30 C541.196768,30 547.097023,34.4699193 548.916279,40.9394153 L576.377307,138.594169 L576.377307,138.594169 C577.10394,141.178165 577.123878,143.909805 576.43504,146.504131 L548.800738,250.581434 L548.800738,250.581434 C547.055239,257.155399 541.104822,261.732057 534.303073,261.732057 L484.597899,261.732057 L484.597899,261.732057 C477.786651,261.732057 471.830428,257.142858 470.093701,250.556746 L443.495802,149.690717 L443.495802,149.690717 C442.834733,147.183773 442.834733,144.548284 443.495802,142.041339 L470.093701,41.175311 L470.093701,41.175311 C471.830428,34.5891991 477.786651,30 484.597899,30 Z" id="L" stroke-opacity="0.3"></path>
                        <path d="M336.597899,0 L386.476346,0 L386.476346,-5.32907052e-15 C393.196768,-6.56359201e-15 399.097023,4.46991933 400.916279,10.9394153 L428.377307,108.594169 L428.377307,108.594169 C429.10394,111.178165 429.123878,113.909805 428.43504,116.504131 L400.800738,220.581434 L400.800738,220.581434 C399.055239,227.155399 393.104822,231.732057 386.303073,231.732057 L336.597899,231.732057 L336.597899,231.732057 C329.786651,231.732057 323.830428,227.142858 322.093701,220.556746 L295.495802,119.690717 L295.495802,119.690717 C294.834733,117.183773 294.834733,114.548284 295.495802,112.041339 L322.093701,11.175311 L322.093701,11.175311 C323.830428,4.58919905 329.786651,-4.07786467e-15 336.597899,-5.32907052e-15 Z" id="R" stroke-opacity="0.497282609"></path>
                        <path d="M188.597899,30 L238.476346,30 L238.476346,30 C245.196768,30 251.097023,34.4699193 252.916279,40.9394153 L280.377307,138.594169 L280.377307,138.594169 C281.10394,141.178165 281.123878,143.909805 280.43504,146.504131 L252.800738,250.581434 L252.800738,250.581434 C251.055239,257.155399 245.104822,261.732057 238.303073,261.732057 L188.597899,261.732057 L188.597899,261.732057 C181.786651,261.732057 175.830428,257.142858 174.093701,250.556746 L147.495802,149.690717 L147.495802,149.690717 C146.834733,147.183773 146.834733,144.548284 147.495802,142.041339 L174.093701,41.175311 L174.093701,41.175311 C175.830428,34.5891991 181.786651,30 188.597899,30 Z" id="O" stroke-opacity="0.3"></path>
                        <path d="M41.5978988,0 L91.4763462,0 L91.4763462,-5.32907052e-15 C98.1967682,-6.56359201e-15 104.097023,4.46991933 105.916279,10.9394153 L133.377307,108.594169 L133.377307,108.594169 C134.10394,111.178165 134.123878,113.909805 133.43504,116.504131 L105.800738,220.581434 L105.800738,220.581434 C104.055239,227.155399 98.1048221,231.732057 91.3030734,231.732057 L41.5978988,231.732057 L41.5978988,231.732057 C34.7866514,231.732057 28.8304279,227.142858 27.093701,220.556746 L0.495802183,119.690717 L0.495802183,119.690717 C-0.165267394,117.183773 -0.165267394,114.548284 0.495802183,112.041339 L27.093701,11.175311 L27.093701,11.175311 C28.8304279,4.58919905 34.7866514,-4.07786467e-15 41.5978988,-5.32907052e-15 Z" id="W" stroke-opacity="0.497282609"></path>
                    </g>
                    <g transform="translate(36.000000, 101.000000)" font-weight="bold" font-size="90" font-family="TradeGothic-BoldCondTwenty, Trade Gothic" fill="#FFFFFF" font-style="condensed">
                        <text id="W">
                            <tspan x="0.985" y="65">W</tspan>
                        </text>
                        <text id="O">
                            <tspan x="155" y="65">O</tspan>
                        </text>
                        <text id="R">
                            <tspan x="301" y="65">R</tspan>
                        </text>
                        <text id="L">
                            <tspan x="456.495" y="65">L</tspan>
                        </text>
                        <text id="D">
                            <tspan x="599.5" y="65">D</tspan>
                        </text>
                    </g>
                </g>
                <path d="M0,2.55301205 L73.4994172,2.55301205 C91.7272727,2.55301205 120.931041,5.69518072 135.042929,31.4216867 C143.274864,46.1506024 143.078866,72.4662651 133.278943,88.7662651 C119.559052,111.546988 91.5312743,116.456627 70.755439,116.456627 L52.723582,116.456627 L52.723582,157.108434 L0,157.108434 L0,2.55301205 Z M52.723582,39.473494 L52.723582,77.1795181 L71.1474359,77.1795181 C80.9473582,77.1795181 88.5912976,68.5385542 88.5912976,58.326506 C88.5912976,49.0963855 80.9473582,39.473494 71.1474359,39.473494 L52.723582,39.473494 Z M158.758741,2.55301205 L158.758741,157.108434 L277.5338,157.108434 L277.5338,121.562651 L211.482323,121.562651 L211.482323,2.55301205 L158.758741,2.55301205 Z M391.800894,105.655422 L378.277001,76.1975904 L364.949106,105.655422 L391.800894,105.655422 Z M350.249223,138.255422 L341.625291,157.108434 L284.001748,157.108434 L375.925019,0.589156627 L380.824981,0.589156627 L472.748252,157.108434 L415.124709,157.108434 L406.500777,138.255422 L350.249223,138.255422 Z M487.252137,0.589156627 L487.252137,157.108434 L539.975719,157.108434 L539.975719,98.5855422 L640.914918,161.23253 L644.638889,161.23253 L644.638889,2.55301205 L591.915307,2.55301205 L591.915307,63.039759 L492.740093,0.589156627 L487.252137,0.589156627 Z M776.545843,68.3421687 L824.173465,51.060241 C813.785548,21.013253 787.325758,0 746.362082,0 C700.106449,0 662.474747,36.5277108 662.474747,81.5 C662.474747,126.472289 700.106449,163 746.362082,163 C789.285742,163 816.137529,139.826506 825.349456,107.815663 L776.545843,94.8542169 C772.037879,106.244578 763.02195,113.903614 747.538073,113.903614 C729.506216,113.903614 716.178322,98.9783133 716.178322,81.5 C716.178322,64.0216867 729.506216,49.0963855 747.538073,49.0963855 C763.02195,49.0963855 772.625874,56.9518072 776.545843,68.3421687 Z M923.544678,163 C875.32906,163 838.089355,126.472289 838.089355,81.5 C838.089355,36.5277108 874.937063,0 923.544678,0 C972.544289,0 1009,36.5277108 1009,81.5 C1009,126.472289 972.544289,163 923.544678,163 Z M891.792929,81.5 C891.792929,98.9783133 905.120824,113.903614 923.936674,113.903614 C941.380536,113.903614 955.296426,98.9783133 955.296426,81.5 C955.296426,64.0216867 941.968531,49.0963855 923.740676,49.0963855 C905.120824,49.0963855 891.792929,64.0216867 891.792929,81.5 Z" id="PLANCO" fill="#FFFFFF"></path>
            </g>
        </g>
    </g>
</svg>