<?xml version="1.0" encoding="UTF-8"?>
<svg width="610px" height="269px" viewBox="0 0 610 269" version="1.1" xmlns="http://www.w3.org/2000/svg" xmlns:xlink="http://www.w3.org/1999/xlink">
    <!-- Generator: Sketch 46.2 (44496) - http://www.bohemiancoding.com/sketch -->
    <title>logo-short</title>
    <desc>Created with Sketch.</desc>
    <defs></defs>
    <g id="Page-1" stroke="none" stroke-width="1" fill="none" fill-rule="evenodd">
        <g id="Logo" transform="translate(-2764.000000, -336.000000)" fill="#FFFFFF">
            <g id="logo-short" transform="translate(2769.000000, 341.000000)">
                <g id="World-BG-Copy" fill-rule="nonzero">
                    <path d="M525.452596,5 C520.911988,5 516.941309,8.05917003 515.783284,12.449625 L494.418746,93.449625 C493.977828,95.1212897 493.977828,96.8787103 494.418746,98.550375 L515.783284,179.550375 C516.941309,183.94083 520.911988,187 525.452596,187 L562.691977,187 C567.226251,187 571.193057,183.949192 572.356931,179.566837 L594.570522,95.925643 C595.02996,94.1957121 595.016663,92.3741751 594.532017,90.6511363 L572.491727,12.2923307 C571.278679,7.97963794 567.345323,5 562.865278,5 L525.452596,5 Z M525.452596,-5 L562.865278,-5 C571.825368,-5 579.69208,0.959275875 582.118176,9.5846614 L604.158466,87.943467 C605.127758,91.3895446 605.154353,95.0326187 604.235477,98.4924804 L582.021886,182.133675 C579.694137,190.898385 571.760524,197 562.691977,197 L525.452596,197 C516.37138,197 508.430023,190.88166 506.113972,182.10075 L484.749434,101.10075 C483.867598,97.7574206 483.867598,94.2425794 484.749434,90.8992499 L506.113972,9.89924991 C508.430023,1.11834005 516.37138,-5 525.452596,-5 Z" id="D" fill-opacity="0.497282609"></path>
                    <path d="M403.452596,30 C398.911988,30 394.941309,33.05917 393.783284,37.449625 L372.418746,118.449625 C371.977828,120.12129 371.977828,121.87871 372.418746,123.550375 L393.783284,204.550375 C394.941309,208.94083 398.911988,212 403.452596,212 L440.691977,212 C445.226251,212 449.193057,208.949192 450.356931,204.566837 L472.570522,120.925643 C473.02996,119.195712 473.016663,117.374175 472.532017,115.651136 L450.491727,37.2923307 C449.278679,32.9796379 445.345323,30 440.865278,30 L403.452596,30 Z M403.452596,20 L440.865278,20 C449.825368,20 457.69208,25.9592759 460.118176,34.5846614 L482.158466,112.943467 C483.127758,116.389545 483.154353,120.032619 482.235477,123.49248 L460.021886,207.133675 C457.694137,215.898385 449.760524,222 440.691977,222 L403.452596,222 C394.37138,222 386.430023,215.88166 384.113972,207.10075 L362.749434,126.10075 C361.867598,122.757421 361.867598,119.242579 362.749434,115.89925 L384.113972,34.8992499 C386.430023,26.1183401 394.37138,20 403.452596,20 Z" id="L" fill-opacity="0.3"></path>
                    <path d="M280.452596,5 C275.911988,5 271.941309,8.05917003 270.783284,12.449625 L249.418746,93.449625 C248.977828,95.1212897 248.977828,96.8787103 249.418746,98.550375 L270.783284,179.550375 C271.941309,183.94083 275.911988,187 280.452596,187 L317.691977,187 C322.226251,187 326.193057,183.949192 327.356931,179.566837 L349.570522,95.925643 C350.02996,94.1957121 350.016663,92.3741751 349.532017,90.6511363 L327.491727,12.2923307 C326.278679,7.97963794 322.345323,5 317.865278,5 L280.452596,5 Z M280.452596,-5 L317.865278,-5 C326.825368,-5 334.69208,0.959275875 337.118176,9.5846614 L359.158466,87.943467 C360.127758,91.3895446 360.154353,95.0326187 359.235477,98.4924804 L337.021886,182.133675 C334.694137,190.898385 326.760524,197 317.691977,197 L280.452596,197 C271.37138,197 263.430023,190.88166 261.113972,182.10075 L239.749434,101.10075 C238.867598,97.7574206 238.867598,94.2425794 239.749434,90.8992499 L261.113972,9.89924991 C263.430023,1.11834005 271.37138,-5 280.452596,-5 Z" id="R" fill-opacity="0.497282609"></path>
                    <path d="M148.783284,37.449625 L127.418746,118.449625 C126.977828,120.12129 126.977828,121.87871 127.418746,123.550375 L148.783284,204.550375 C149.941309,208.94083 153.911988,212 158.452596,212 L195.691977,212 C200.226251,212 204.193057,208.949192 205.356931,204.566837 L227.570522,120.925643 C228.02996,119.195712 228.016663,117.374175 227.532017,115.651136 L205.491727,37.2923307 C204.278679,32.9796379 200.345323,30 195.865278,30 L158.452596,30 C153.911988,30 149.941309,33.05917 148.783284,37.449625 Z M195.865278,20 C204.825368,20 212.69208,25.9592759 215.118176,34.5846614 L237.158466,112.943467 C238.127758,116.389545 238.154353,120.032619 237.235477,123.49248 L215.021886,207.133675 C212.694137,215.898385 204.760524,222 195.691977,222 L158.452596,222 C149.37138,222 141.430023,215.88166 139.113972,207.10075 L117.749434,126.10075 C116.867598,122.757421 116.867598,119.242579 117.749434,115.89925 L139.113972,34.8992499 C141.430023,26.1183401 149.37138,20 158.452596,20 L195.865278,20 Z" id="O" fill-opacity="0.3"></path>
                    <path d="M36.4525955,5 C31.911988,5 27.9413091,8.05917003 26.7832839,12.449625 L5.41874559,93.449625 C4.97782775,95.1212897 4.97782775,96.8787103 5.41874559,98.550375 L26.7832839,179.550375 C27.9413091,183.94083 31.911988,187 36.4525955,187 L73.6919768,187 C78.2262505,187 82.1930569,183.949192 83.3569313,179.566837 L105.570522,95.925643 C106.02996,94.1957121 106.016663,92.3741751 105.532017,90.6511363 L83.4917271,12.2923307 C82.278679,7.97963794 78.3453229,5 73.8652777,5 L36.4525955,5 Z M36.4525955,-5 L73.8652777,-5 C82.825368,-5 90.6920803,0.959275875 93.1181764,9.5846614 L115.158466,87.943467 C116.127758,91.3895446 116.154353,95.0326187 115.235477,98.4924804 L93.0218858,182.133675 C90.6941371,190.898385 82.7605243,197 73.6919768,197 L36.4525955,197 C27.3713804,197 19.4300227,190.88166 17.1139723,182.10075 L-4.25056602,101.10075 C-5.13240171,97.7574206 -5.13240171,94.2425794 -4.25056602,90.8992499 L17.1139723,9.89924991 C19.4300227,1.11834005 27.3713804,-5 36.4525955,-5 Z" id="W" fill-opacity="0.497282609"></path>
                </g>
                <path d="M42,110.443373 L112.525646,110.443373 C130.016006,110.443373 158.038196,113.450602 171.57912,138.072289 C179.477992,152.168675 179.289924,177.354217 169.886504,192.954217 C156.721717,214.756627 129.827937,219.455422 109.892688,219.455422 L92.5903965,219.455422 L92.5903965,258.361446 L42,258.361446 L42,110.443373 Z M92.5903965,145.778313 L92.5903965,181.86506 L110.268825,181.86506 C119.672244,181.86506 127.006912,173.595181 127.006912,163.821687 C127.006912,154.987952 119.672244,145.778313 110.268825,145.778313 L92.5903965,145.778313 Z M298.901419,173.407229 L344.602037,156.86747 C334.634413,128.110843 309.24518,108 269.938887,108 C225.554747,108 189.445617,142.959036 189.445617,186 C189.445617,229.040964 225.554747,264 269.938887,264 C311.125864,264 336.891233,241.821687 345.730447,211.185542 L298.901419,198.780723 C294.575846,209.681928 285.9247,217.012048 271.067297,217.012048 C253.765005,217.012048 240.976355,202.727711 240.976355,186 C240.976355,169.272289 253.765005,154.987952 271.067297,154.987952 C285.9247,154.987952 295.140051,162.506024 298.901419,173.407229 Z M460.076028,110.631325 L454.433976,110.631325 L428.668607,166.26506 L409.861768,110.443373 L355.698072,110.443373 L419.829393,264 L424.531102,264 L457.255002,208.366265 L490.16697,264 L494.680611,264 L559,110.443373 L504.648236,110.443373 L485.841397,166.26506 L460.076028,110.631325 Z" id="PCW"></path>
            </g>
        </g>
    </g>
</svg>