<svg height="364" viewBox="0 0 1009 364" width="1009" xmlns="http://www.w3.org/2000/svg"><g fill="none" fill-rule="evenodd"><g stroke="#3f90d2" stroke-opacity=".497283" stroke-width="8" transform="translate(142 98)"><path d="m632.597899 0h49.878447c6.720422 0 12.620677 4.46991933 14.439933 10.9394153l27.461028 97.6547537c.726633 2.583996.746571 5.315636.057733 7.909962l-27.634302 104.077303c-1.745499 6.573965-7.695916 11.150623-14.497665 11.150623h-49.705174c-6.811248 0-12.767471-4.589199-14.504198-11.175311l-26.597899-100.866029c-.661069-2.506944-.661069-5.142433 0-7.649378l26.597899-100.866028c1.736727-6.58611195 7.69295-11.175311 14.504198-11.175311z"/><path d="m484.597899 30h49.878447c6.720422 0 12.620677 4.4699193 14.439933 10.9394153l27.461028 97.6547537c.726633 2.583996.746571 5.315636.057733 7.909962l-27.634302 104.077303c-1.745499 6.573965-7.695916 11.150623-14.497665 11.150623h-49.705174c-6.811248 0-12.767471-4.589199-14.504198-11.175311l-26.597899-100.866029c-.661069-2.506944-.661069-5.142433 0-7.649378l26.597899-100.866028c1.736727-6.5861119 7.69295-11.175311 14.504198-11.175311z"/><path d="m336.597899 0h49.878447c6.720422 0 12.620677 4.46991933 14.439933 10.9394153l27.461028 97.6547537c.726633 2.583996.746571 5.315636.057733 7.909962l-27.634302 104.077303c-1.745499 6.573965-7.695916 11.150623-14.497665 11.150623h-49.705174c-6.811248 0-12.767471-4.589199-14.504198-11.175311l-26.597899-100.866029c-.661069-2.506944-.661069-5.142433 0-7.649378l26.597899-100.866028c1.736727-6.58611195 7.69295-11.175311 14.504198-11.175311z"/><path d="m188.597899 30h49.878447c6.720422 0 12.620677 4.4699193 14.439933 10.9394153l27.461028 97.6547537c.726633 2.583996.746571 5.315636.057733 7.909962l-27.634302 104.077303c-1.745499 6.573965-7.695916 11.150623-14.497665 11.150623h-49.705174c-6.811248 0-12.767471-4.589199-14.504198-11.175311l-26.597899-100.866029c-.661069-2.506944-.661069-5.142433 0-7.649378l26.597899-100.866028c1.736727-6.5861119 7.69295-11.175311 14.504198-11.175311z"/><path d="m41.5978988 0h49.8784474c6.720422 0 12.6206768 4.46991933 14.4399328 10.9394153l27.461028 97.6547537c.726633 2.583996.746571 5.315636.057733 7.909962l-27.634302 104.077303c-1.745499 6.573965-7.6959159 11.150623-14.4976646 11.150623h-49.7051746c-6.8112474 0-12.7674709-4.589199-14.5041978-11.175311l-26.59789882-100.866029c-.66106957-2.506944-.66106957-5.142433 0-7.649378l26.59789882-100.866028c1.7367269-6.58611195 7.6929504-11.175311 14.5041978-11.175311z"/></g><g fill="#3f90d2" fill-rule="nonzero"><g transform="translate(174 198)"><path d="m13.645 66-13.59-64.98h11.52l8.73 42.48h.18l8.91-42.48h11.97l9 42.48h.18l8.64-42.48h11.61l-14.22 64.98h-11.97l-9.09-44.46h-.18l-9.81 44.46z"/><path d="m162.5 45.12v-23.22c0-16.02 8.46-21.78 20.52-21.78s20.52 5.76 20.52 21.78v23.22c0 16.02-8.46 21.78-20.52 21.78s-20.52-5.76-20.52-21.78zm12.42-24.84v26.46c0 7.2 3.15 9.18 8.1 9.18s8.1-1.98 8.1-9.18v-26.46c0-7.2-3.15-9.18-8.1-9.18s-8.1 1.98-8.1 9.18z"/><path d="m353.06 66h-13.32l-10.8-26.46h-5.94v26.46h-12.42v-64.98h18c14.94 0 22.05 7.2 22.05 19.44 0 8.1-2.88 13.95-9.81 16.56zm-30.06-54.72v18h6.39c5.49 0 8.82-2.7 8.82-9s-3.33-9-8.82-9z"/><path d="m497.475 66h-32.4v-64.98h12.42v54h19.98z"/><path d="m609.08 66v-64.98h17.28c14.22 0 22.14 6.12 22.68 22.5v19.98c-.54 16.38-8.46 22.5-22.68 22.5zm12.42-54v43.02h4.32c6.84 0 10.8-3.24 10.8-12.96v-17.1c0-9.18-3.06-12.96-10.8-12.96z"/></g><path d="m0 2.55301205h73.4994172c18.2278555 0 47.4316238 3.14216867 61.5435118 28.86867465 8.231935 14.7289157 8.035937 41.0445784-1.763986 57.3445784-13.719891 22.7807229-41.7476687 27.6903619-62.523504 27.6903619h-18.031857v40.651807h-52.723582zm52.723582 36.92048195v37.7060241h18.4238539c9.7999223 0 17.4438617-8.6409639 17.4438617-18.8530121 0-9.2301205-7.6439394-18.853012-17.4438617-18.853012zm106.035159-36.92048195v154.55542195h118.775059v-35.545783h-66.051477v-119.00963895zm233.042153 103.10240995-13.523893-29.4578316-13.327895 29.4578316zm-41.551671 32.6-8.623932 18.853012h-57.623543l91.923271-156.51927737h4.899962l91.923271 156.51927737h-57.623543l-8.623932-18.853012zm137.002914-137.66626537v156.51927737h52.723582v-58.5228918l100.939199 62.6469878h3.723971v-158.67951795h-52.723582v60.48674695l-99.175214-62.45060237zm289.293706 67.75301207 47.627622-17.2819277c-10.387917-30.046988-36.847707-51.060241-77.811383-51.060241-46.255633 0-83.887335 36.5277108-83.887335 81.5 0 44.972289 37.631702 81.5 83.887335 81.5 42.92366 0 69.775447-23.173494 78.987374-55.184337l-48.803613-12.9614461c-4.507964 11.3903611-13.523893 19.0493971-29.00777 19.0493971-18.031857 0-31.359751-14.9253007-31.359751-32.403614s13.327894-32.4036145 31.359751-32.4036145c15.483877 0 25.087801 7.8554217 29.00777 19.2457832zm146.998835 94.6578313c-48.215618 0-85.455323-36.527711-85.455323-81.5 0-44.9722892 36.847708-81.5 85.455323-81.5 48.999611 0 85.455322 36.5277108 85.455322 81.5 0 44.972289-36.455711 81.5-85.455322 81.5zm-31.751749-81.5c0 17.4783133 13.327895 32.403614 32.143745 32.403614 17.443862 0 31.359752-14.9253007 31.359752-32.403614s-13.327895-32.4036145-31.55575-32.4036145c-18.619852 0-31.947747 14.9253012-31.947747 32.4036145z"/></g></g></svg>