<?xml version="1.0" encoding="UTF-8"?>
<svg width="1642px" height="175px" viewBox="0 0 1642 175" version="1.1" xmlns="http://www.w3.org/2000/svg" xmlns:xlink="http://www.w3.org/1999/xlink">
    <!-- Generator: Sketch 46.2 (44496) - http://www.bohemiancoding.com/sketch -->
    <title>logo-horizontal</title>
    <desc>Created with Sketch.</desc>
    <defs></defs>
    <g id="Page-1" stroke="none" stroke-width="1" fill="none" fill-rule="evenodd">
        <g id="Logo" transform="translate(-2874.000000, -279.000000)" fill="#FFFFFF">
            <g id="logo-horizontal" transform="translate(2874.000000, 279.000000)">
                <path d="M1104.48828,14.21875 L1143.74609,115 L1184.76172,6.89453125 L1224.01953,115 L1265.71875,14.21875 L1290.42578,14.21875 L1223.04297,174.570312 L1184.27344,67.734375 L1143.84375,174.667969 L1079.78125,14.21875 L1104.48828,14.21875 Z M1300.48438,116.757812 C1300.48438,103.020765 1305.39969,91.3346836 1315.23047,81.6992188 C1325.06125,72.0637539 1337.04029,67.2460938 1351.16797,67.2460938 C1365.36075,67.2460938 1377.4049,72.0963057 1387.30078,81.796875 C1397.06646,91.4974443 1401.94922,103.411388 1401.94922,117.539062 C1401.94922,131.796946 1397.0339,143.743441 1387.20312,153.378906 C1377.30724,162.949267 1365.16544,167.734375 1350.77734,167.734375 C1336.51946,167.734375 1324.57296,162.851611 1314.9375,153.085938 C1305.30204,143.450473 1300.48438,131.341219 1300.48438,116.757812 Z M1322.94531,117.148438 C1322.94531,126.653693 1325.48435,134.173149 1330.5625,139.707031 C1335.77086,145.306018 1342.63928,148.105469 1351.16797,148.105469 C1359.76176,148.105469 1366.63018,145.338569 1371.77344,139.804688 C1376.91669,134.270806 1379.48828,126.881557 1379.48828,117.636719 C1379.48828,108.391881 1376.91669,101.002632 1371.77344,95.46875 C1366.56508,89.8697637 1359.69666,87.0703125 1351.16797,87.0703125 C1342.76949,87.0703125 1335.96617,89.8697637 1330.75781,95.46875 C1325.54945,101.067736 1322.94531,108.294227 1322.94531,117.148438 Z M1425.19141,69.8828125 L1447.16406,69.8828125 L1447.16406,78.3789062 C1451.20054,74.1471143 1454.78123,71.2500078 1457.90625,69.6875 C1461.09637,68.0598877 1464.87237,67.2460938 1469.23438,67.2460938 C1475.02867,67.2460938 1481.0833,69.1340957 1487.39844,72.9101562 L1477.33984,93.0273438 C1473.17316,90.0325371 1469.10419,88.5351562 1465.13281,88.5351562 C1453.15359,88.5351562 1447.16406,97.5845449 1447.16406,115.683594 L1447.16406,165 L1425.19141,165 L1425.19141,69.8828125 Z M1521.96875,0.05859375 L1521.96875,165 L1499.99609,165 L1499.99609,0.05859375 L1521.96875,0.05859375 Z M1619.91797,0.05859375 L1641.98828,0.05859375 L1641.98828,165 L1619.91797,165 L1619.91797,155.039062 C1611.25907,163.502646 1601.46099,167.734375 1590.52344,167.734375 C1577.50254,167.734375 1566.69536,162.981818 1558.10156,153.476562 C1549.57287,143.775993 1545.30859,131.666739 1545.30859,117.148438 C1545.30859,102.955658 1549.57287,91.1068184 1558.10156,81.6015625 C1566.56515,72.0312021 1577.20957,67.2460938 1590.03516,67.2460938 C1601.16802,67.2460938 1611.12886,71.8033398 1619.91797,80.9179688 L1619.91797,0.05859375 Z M1567.76953,117.148438 C1567.76953,126.263066 1570.21091,133.684867 1575.09375,139.414062 C1580.1068,145.208362 1586.42184,148.105469 1594.03906,148.105469 C1602.17712,148.105469 1608.75258,145.306018 1613.76562,139.707031 C1618.77867,133.912731 1621.28516,126.556034 1621.28516,117.636719 C1621.28516,108.717403 1618.77867,101.360706 1613.76562,95.5664062 C1608.75258,89.9023154 1602.24223,87.0703125 1594.23438,87.0703125 C1586.68225,87.0703125 1580.36721,89.9348672 1575.28906,95.6640625 C1570.27602,101.458362 1567.76953,108.619749 1567.76953,117.148438 Z" id="World"></path>
                <path d="M0,14.553012 L73.4994172,14.553012 C91.7272727,14.553012 120.931041,17.6951807 135.042929,43.4216867 C143.274864,58.1506024 143.078866,84.4662651 133.278943,100.766265 C119.559052,123.546988 91.5312743,128.456627 70.755439,128.456627 L52.723582,128.456627 L52.723582,169.108434 L0,169.108434 L0,14.553012 Z M52.723582,51.473494 L52.723582,89.1795181 L71.1474359,89.1795181 C80.9473582,89.1795181 88.5912976,80.5385542 88.5912976,70.326506 C88.5912976,61.0963855 80.9473582,51.473494 71.1474359,51.473494 L52.723582,51.473494 Z M158.758741,14.553012 L158.758741,169.108434 L277.5338,169.108434 L277.5338,133.562651 L211.482323,133.562651 L211.482323,14.553012 L158.758741,14.553012 Z M391.800894,117.655422 L378.277001,88.1975904 L364.949106,117.655422 L391.800894,117.655422 Z M350.249223,150.255422 L341.625291,169.108434 L284.001748,169.108434 L375.925019,12.5891566 L380.824981,12.5891566 L472.748252,169.108434 L415.124709,169.108434 L406.500777,150.255422 L350.249223,150.255422 Z M487.252137,12.5891566 L487.252137,169.108434 L539.975719,169.108434 L539.975719,110.585542 L640.914918,173.23253 L644.638889,173.23253 L644.638889,14.553012 L591.915307,14.553012 L591.915307,75.039759 L492.740093,12.5891566 L487.252137,12.5891566 Z M776.545843,80.3421687 L824.173465,63.060241 C813.785548,33.013253 787.325758,12 746.362082,12 C700.106449,12 662.474747,48.5277108 662.474747,93.5 C662.474747,138.472289 700.106449,175 746.362082,175 C789.285742,175 816.137529,151.826506 825.349456,119.815663 L776.545843,106.854217 C772.037879,118.244578 763.02195,125.903614 747.538073,125.903614 C729.506216,125.903614 716.178322,110.978313 716.178322,93.5 C716.178322,76.0216867 729.506216,61.0963855 747.538073,61.0963855 C763.02195,61.0963855 772.625874,68.9518072 776.545843,80.3421687 Z M923.544678,175 C875.32906,175 838.089355,138.472289 838.089355,93.5 C838.089355,48.5277108 874.937063,12 923.544678,12 C972.544289,12 1009,48.5277108 1009,93.5 C1009,138.472289 972.544289,175 923.544678,175 Z M891.792929,93.5 C891.792929,110.978313 905.120824,125.903614 923.936674,125.903614 C941.380536,125.903614 955.296426,110.978313 955.296426,93.5 C955.296426,76.0216867 941.968531,61.0963855 923.740676,61.0963855 C905.120824,61.0963855 891.792929,76.0216867 891.792929,93.5 Z" id="PLANCO"></path>
            </g>
        </g>
    </g>
</svg>