<svg xmlns="http://www.w3.org/2000/svg" viewBox="0 0 90.01 85.16">
  <defs>
    <style>
      .logo-spooky {
        fill: #340A68;
      }
    </style>
  </defs>
  <g id="Layer_2" data-name="Layer 2">
    <g id="Layer_1-2" data-name="Layer 1">
      <path class="logo-spooky" d="M45.45,0C70.88.33,90.43,18.88,90,42.29,89.56,66,68.62,85.66,44.27,85.15,19.28,84.63-.37,65.32,0,41.66.38,18.32,20.71-.32,45.45,0ZM59.06,42.31c-6.14,9.12-6.14,9.12-15,4.49-6.33,5.27-6.33,5.27-16-.48l-1.6,1c-5.44,3.43-6.54,3.15-9.1-2.74-1.7-3.91-4.74-4.39-9-3.93,2.48,4.71,4.32,9.24,7.11,13.09a11.25,11.25,0,0,0,7.08,4.2c4.34.46,5.88,2.11,5.61,6.31-.11,1.64.73,3.33,1.14,5a24.22,24.22,0,0,1,4.88-1.71c2.21-.29,5.1-.94,6.62.12,4.9,3.4,6.17,3.61,10.29-.66,1.24-1.29,2.44-2.61,3.81-4.07,1.63,1.05,2.91,2.24,4.41,2.74,1.68.55,4,1.22,5.22.46s1.59-3.32,1.32-4.93c-.71-4.27.42-7.82,3.86-10.1,7.11-4.73,7.58-12.29,9.61-20-5.29,2-9.47,3.66-9.73,9.83-.16,3.74-3.46,5.11-6.93,3.49C61.52,43.83,60.43,43.1,59.06,42.31ZM30.41,32.26c-5.71-8.33-7.89-8.87-14.11-3.92Zm25.06-4.13L65,20C57.69,18.69,56.89,19.48,55.47,28.13Z"/>
    </g>
  </g>
</svg>
