<svg xmlns="http://www.w3.org/2000/svg" viewBox="0 0 671.7 104.61">
  <defs>
    <style>
      .cls-1 {
        fill: #fff;
      }
    </style>
  </defs>
  <title>studios-pack-logo</title>
  <g id="Layer_2" data-name="Layer 2">
    <g id="Layer_1-2" data-name="Layer 1">
      <g id="o8GrW7">
        <g>
          <path class="cls-1" d="M671.14,44.22C667.76,19.8,645.44.13,620.75.1Q521.5,0,422.26.06H160.78c-36,0-72-.11-108,0C20.34.15-3.42,27.14.4,59.29c2.87,24.14,24.15,44.08,48.41,45.13,7.73.33,15.49.11,23.23.11H336q141.36,0,282.72,0a49.69,49.69,0,0,0,16-2.24C660.16,93.84,674.79,70.52,671.14,44.22ZM92.8,75.06c-7.86,4.65-16.17,4.84-24.44,1.11-3.83-1.73-6.48-4.82-8.19-9.25L72,62.42c.7.89,1.24,1.6,1.81,2.29,2.08,2.5,5.14,3.54,8.07,2.29a4.34,4.34,0,0,0,2.41-3,4,4,0,0,0-2.26-3,48,48,0,0,0-7.33-1.42c-6.25-1.09-11.35-3.89-13-10.42-1.78-6.86.16-12.93,5.5-17.63,6.73-5.93,19.77-6.57,27.2-1.49a11.75,11.75,0,0,1,5.38,8.2L88.33,42.58c-1.5-3.47-4-4.93-7.47-4.57-1.78.18-3.42.58-3.71,2.63s1.23,3,3,3.34c2.28.48,4.59.8,6.89,1.21,8.33,1.48,12.68,5,13.9,11.27C102.42,64.18,99.65,71,92.8,75.06Zm58.27-33.55-14.39-1.44V77.51h-17.9V40l-14.46,1.46V27.77h46.74Zm52.5,15.58C203.21,69.5,197,76.4,184.63,78.28c-6.94,1.05-13.65.21-19.73-3.58a18.62,18.62,0,0,1-9.1-15.81c-.34-9.82-.12-19.65-.13-29.48a12.51,12.51,0,0,1,.29-1.68H173.1c.11,1.41.27,2.55.27,3.68,0,7.83,0,15.66,0,23.48a18,18,0,0,0,.28,3.72c.73,3.36,2.82,4.6,7,4.33,3.19-.2,4.87-1.7,4.94-5.09.17-8.74.12-17.49.18-26.23,0-1.22.16-2.44.26-3.91H203.3a22,22,0,0,1,.34,2.63C203.65,39.27,203.83,48.18,203.57,57.09Zm54.17-2c-1.5,14.24-10.13,22.27-24.44,22.53-7.08.13-14.16,0-21.23,0a23,23,0,0,1-2.3-.26V27.89a13.45,13.45,0,0,1,2.29-.4c7.74,0,15.51-.26,23.22.29C250.65,28.88,259.36,39.73,257.74,55.13Zm21.78,22.39H262.35V27.76h17.17Zm51.94-6.91A28.55,28.55,0,0,1,288.61,67C278,52.21,286.73,31.27,305.23,27.4c2.19-.46,4.44-.58,6.08-.78,10.43.46,18.65,4,24.17,12.43C342,49,340.22,62,331.46,70.61ZM378,73c-9,8.32-26,7.51-33.12-1.57a45.5,45.5,0,0,1-2.67-4.4l12.06-4.57c.71.91,1.24,1.64,1.81,2.33,2,2.38,5.08,3.45,7.86,2.23a4.63,4.63,0,0,0,2.46-3.16c.08-.92-1.32-2.5-2.38-2.85a54.67,54.67,0,0,0-7.34-1.39c-5.94-1.09-10.77-3.76-12.66-9.89-2-6.35-.36-12.09,4.11-16.86,6.69-7.14,20.94-8.29,28.84-2.48a12,12,0,0,1,5,7.88l-11.34,4.3c-1.56-3.26-3.87-4.83-7.3-4.52-1.86.17-3.63.5-3.85,2.73s1.54,3,3.31,3.36c3.26.68,6.59,1,9.81,1.82C378,47.28,382,50.4,383.14,56.11,384.48,62.61,383,68.36,378,73Zm50.24-8.25V77.58H410.84V28a5,5,0,0,1,1.45-.47c9.39.23,18.84-.08,28.15.93s15,7.4,15.49,15.36c.7,10.68-6.54,19-17.74,20.22C435.15,64.43,432.08,64.48,428.29,64.71Zm60,12.7-3.13-5.66H466.65l-3.18,5.8H446.13l29.81-51,29.75,50.82Zm41.42,1.17c-15,.74-26.83-8.7-28.12-22.46-1.45-15.53,7.28-26.93,22.63-29.07,14.54-2,26.08,5,29.2,15.5l-14.65,5.37c-7-6.67-12.53-7.46-17.11-2.67a10.57,10.57,0,0,0,.44,14.67c4.65,4.44,10.18,3.49,16.67-3.1l14.77,3.92C553.57,69.47,541.91,78,529.76,78.59Zm58.82-1.07L576.57,58l-.53.1V77.39H558.58V27.76H576V46.43l.67.18,11.52-18.9h18.63l-14.65,22.5,17,27.3Z"/>
          <path class="cls-1" d="M301.81,52.58c0-5.95,4.13-10.42,9.7-10.47a10,10,0,0,1,10.11,10.36,10.1,10.1,0,0,1-10,10.25A10,10,0,0,1,301.81,52.58Z"/>
          <path class="cls-1" d="M227.33,41.7c5.08-1.72,9.23,0,10.91,4.16a18,18,0,0,1-.28,14.3c-1.74,4-5.51,5.57-10.57,4.13C227.16,56.88,227.3,49.27,227.33,41.7Z"/>
          <path class="cls-1" d="M428.67,40.4c3.17-1.38,7-.58,9,1.78a6,6,0,0,1,.3,7c-1.62,2.23-5.39,3-9.26,1.72Z"/>
          <path class="cls-1" d="M471.59,60.24l4-8.63.72,0,4,8.65Z"/>
        </g>
      </g>
    </g>
  </g>
</svg>
