<?xml version="1.0" encoding="UTF-8"?>
<svg width="72px" height="56px" viewBox="0 0 72 56" version="1.1" xmlns="http://www.w3.org/2000/svg" xmlns:xlink="http://www.w3.org/1999/xlink">
    <title>Biome</title>
    <g id="Page-1" stroke="none" stroke-width="1" fill="none" fill-rule="evenodd">
        <g id="noun_160738_cc" transform="translate(-18.000000, 0.000000)" fill-rule="nonzero" fill="#0087D8">
            <path d="M39.216,43.23 C38.507,42.803 37.584,43.033 37.157,43.741 L34.981,47.352 C34.553,48.062 34.782,48.984 35.492,49.412 C35.734,49.558 36.001,49.627 36.264,49.627 C36.773,49.627 37.269,49.368 37.55,48.901 L39.726,45.29 C40.155,44.58 39.926,43.658 39.216,43.23 Z M88.962,53.063 L76.883,26.563 C76.679,26.117 76.271,25.798 75.788,25.71 C75.307,25.621 74.81,25.774 74.463,26.119 L70.663,29.877 L54.957,3.797 C54.686,3.346 54.198,3.071 53.672,3.071 C53.146,3.071 52.658,3.346 52.387,3.797 L43.63,18.342 C43.629,18.344 43.628,18.346 43.626,18.348 L39.466,25.258 L35.162,21.18 C34.81,20.847 34.32,20.702 33.845,20.796 C33.37,20.888 32.968,21.204 32.767,21.645 L18.294,53.267 C18.081,53.731 18.12,54.272 18.396,54.702 C18.672,55.132 19.147,55.391 19.658,55.391 L87.71,55.391 C88.539,55.391 89.21,54.719 89.21,53.891 C89.21,53.585 89.119,53.3 88.962,53.063 Z M53.672,7.479 L60.933,19.536 L58.567,19.536 C58.047,19.536 57.564,19.805 57.292,20.247 L56.103,22.169 L53.43,17.73 C53.159,17.281 52.674,17.005 52.15,17.004 L52.145,17.004 C51.623,17.004 51.137,17.276 50.865,17.723 L48.454,21.675 L46.678,19.096 L53.672,7.479 Z M44.978,21.918 L46.743,24.479 L45.568,26.405 C45.136,27.112 45.36,28.035 46.067,28.467 C46.311,28.616 46.581,28.687 46.847,28.687 C47.353,28.687 47.847,28.432 48.129,27.968 L52.137,21.399 L54.801,25.824 C55.071,26.272 55.554,26.547 56.077,26.55 C56.61,26.596 57.086,26.284 57.361,25.839 L59.403,22.537 L62.74,22.537 L71.784,37.556 L68.329,37.556 C68.315,37.556 68.304,37.56 68.29,37.56 C68.238,37.561 68.187,37.569 68.136,37.576 C68.089,37.582 68.041,37.587 67.995,37.597 C67.949,37.608 67.905,37.624 67.861,37.639 C67.813,37.655 67.765,37.668 67.72,37.689 C67.676,37.709 67.635,37.734 67.593,37.757 C67.552,37.78 67.509,37.802 67.471,37.829 C67.43,37.857 67.393,37.892 67.355,37.924 C67.32,37.955 67.283,37.984 67.251,38.018 C67.219,38.051 67.192,38.088 67.163,38.124 C67.129,38.166 67.096,38.208 67.066,38.254 C67.059,38.264 67.05,38.273 67.044,38.283 L65.263,41.245 L63.016,37.514 C63.005,37.496 62.991,37.482 62.979,37.465 C62.951,37.42 62.917,37.378 62.884,37.337 C62.853,37.299 62.821,37.263 62.787,37.229 C62.754,37.197 62.719,37.166 62.683,37.136 C62.64,37.101 62.598,37.068 62.552,37.038 C62.535,37.026 62.522,37.013 62.504,37.002 C62.483,36.989 62.459,36.982 62.438,36.971 C62.39,36.946 62.341,36.922 62.292,36.902 C62.249,36.884 62.205,36.87 62.161,36.856 C62.113,36.842 62.066,36.831 62.018,36.821 C61.97,36.812 61.922,36.804 61.874,36.8 C61.826,36.796 61.778,36.794 61.73,36.794 C61.682,36.794 61.634,36.796 61.586,36.8 C61.538,36.805 61.49,36.813 61.443,36.821 C61.394,36.831 61.346,36.842 61.298,36.856 C61.254,36.87 61.212,36.884 61.169,36.902 C61.117,36.923 61.068,36.946 61.02,36.972 C60.999,36.983 60.976,36.99 60.956,37.002 C60.939,37.012 60.926,37.026 60.909,37.037 C60.862,37.067 60.818,37.101 60.774,37.138 C60.74,37.167 60.706,37.196 60.674,37.227 C60.638,37.263 60.606,37.3 60.573,37.339 C60.541,37.38 60.509,37.42 60.481,37.463 C60.469,37.482 60.454,37.495 60.443,37.514 L56.37,44.28 L50.14,33.934 C49.852,33.455 49.339,33.203 48.818,33.215 C48.297,33.202 47.783,33.455 47.495,33.934 L43.945,39.83 L43.013,38.283 C43.007,38.272 42.998,38.264 42.992,38.254 C42.963,38.208 42.929,38.167 42.895,38.124 C42.866,38.089 42.839,38.052 42.808,38.019 C42.775,37.985 42.738,37.956 42.701,37.924 C42.664,37.892 42.628,37.859 42.588,37.83 C42.548,37.801 42.504,37.78 42.461,37.756 C42.42,37.734 42.382,37.708 42.34,37.69 C42.292,37.669 42.241,37.655 42.192,37.638 C42.15,37.624 42.109,37.609 42.066,37.599 C42.018,37.588 41.968,37.583 41.919,37.577 C41.869,37.571 41.82,37.564 41.771,37.562 C41.757,37.562 41.745,37.558 41.731,37.558 L35.565,37.558 L44.978,21.918 Z M21.994,52.391 L34.621,24.801 L37.881,27.89 L31.753,38.068 C31.633,38.205 31.538,38.36 31.473,38.533 L23.129,52.391 L21.994,52.391 Z M26.63,52.391 L33.756,40.555 L40.88,40.555 L42.66,43.509 C42.668,43.523 42.681,43.532 42.689,43.546 C42.744,43.631 42.807,43.71 42.879,43.783 C42.893,43.797 42.903,43.812 42.917,43.826 C42.993,43.897 43.077,43.963 43.17,44.019 C43.178,44.024 43.187,44.025 43.194,44.03 C43.273,44.075 43.358,44.106 43.444,44.136 C43.483,44.15 43.521,44.172 43.561,44.183 C43.668,44.211 43.779,44.223 43.891,44.227 C43.908,44.228 43.926,44.234 43.943,44.234 L43.946,44.234 C43.964,44.234 43.981,44.227 43.998,44.227 C44.109,44.223 44.22,44.211 44.328,44.183 C44.369,44.171 44.408,44.15 44.448,44.135 C44.532,44.105 44.616,44.074 44.695,44.03 C44.703,44.025 44.712,44.024 44.719,44.019 C44.813,43.962 44.897,43.896 44.973,43.825 C44.985,43.813 44.995,43.799 45.007,43.787 C45.081,43.712 45.146,43.631 45.202,43.544 C45.21,43.53 45.223,43.522 45.23,43.508 L48.817,37.55 L55.085,47.959 C55.094,47.973 55.106,47.982 55.115,47.996 C55.17,48.081 55.232,48.161 55.305,48.234 C55.318,48.248 55.328,48.263 55.342,48.276 C55.418,48.348 55.502,48.414 55.596,48.47 C55.604,48.475 55.612,48.476 55.619,48.48 C55.7,48.527 55.788,48.559 55.876,48.59 C55.913,48.603 55.948,48.623 55.985,48.633 C56.098,48.663 56.215,48.677 56.333,48.68 C56.345,48.68 56.356,48.685 56.368,48.685 L56.37,48.685 C56.382,48.685 56.393,48.681 56.405,48.68 C56.522,48.677 56.639,48.663 56.753,48.633 C56.79,48.624 56.823,48.604 56.859,48.591 C56.949,48.56 57.037,48.528 57.12,48.48 C57.127,48.476 57.136,48.474 57.142,48.47 C57.235,48.414 57.319,48.349 57.395,48.277 C57.411,48.263 57.422,48.245 57.437,48.23 C57.508,48.158 57.57,48.08 57.624,47.997 C57.633,47.983 57.645,47.974 57.654,47.959 L61.727,41.193 L63.975,44.925 C63.983,44.939 63.995,44.947 64.003,44.96 C64.059,45.047 64.123,45.129 64.197,45.204 C64.21,45.216 64.219,45.23 64.231,45.242 C64.308,45.314 64.392,45.38 64.486,45.436 C64.494,45.441 64.502,45.442 64.509,45.446 C64.59,45.493 64.678,45.525 64.766,45.556 C64.803,45.569 64.838,45.589 64.875,45.599 C64.988,45.629 65.105,45.643 65.223,45.646 C65.235,45.646 65.246,45.651 65.258,45.651 L65.26,45.651 C65.272,45.651 65.283,45.647 65.295,45.646 C65.412,45.643 65.529,45.629 65.643,45.599 C65.68,45.59 65.713,45.57 65.749,45.557 C65.839,45.526 65.927,45.494 66.01,45.446 C66.017,45.442 66.026,45.44 66.032,45.436 C66.125,45.38 66.209,45.315 66.285,45.243 C66.301,45.229 66.312,45.211 66.327,45.196 C66.398,45.124 66.46,45.046 66.514,44.963 C66.523,44.949 66.535,44.94 66.544,44.925 L69.173,40.554 L73.586,40.554 L80.714,52.39 L26.63,52.39 L26.63,52.391 Z M84.22,52.391 L72.256,32.522 L75.044,29.764 L85.358,52.39 L84.22,52.39 L84.22,52.391 Z M58.932,32.686 C59.214,33.154 59.71,33.413 60.218,33.413 C60.482,33.413 60.748,33.344 60.99,33.198 C61.7,32.77 61.928,31.848 61.502,31.139 L59.743,28.218 C59.315,27.509 58.393,27.281 57.684,27.707 C56.974,28.135 56.746,29.056 57.172,29.766 L58.932,32.686 Z M70.579,12.849 C73.922,12.849 76.642,10.129 76.642,6.786 C76.642,3.443 73.922,0.723 70.579,0.723 C67.236,0.723 64.516,3.443 64.516,6.786 C64.516,10.129 67.236,12.849 70.579,12.849 Z M70.579,3.724 C72.267,3.724 73.642,5.098 73.642,6.787 C73.642,8.476 72.268,9.85 70.579,9.85 C68.89,9.85 67.516,8.476 67.516,6.787 C67.516,5.098 68.891,3.724 70.579,3.724 Z" id="Shape"></path>
        </g>
    </g>
</svg>
